<svg id="Capa_1" data-name="Capa 1" xmlns="http://www.w3.org/2000/svg" viewBox="0 0 472.89 138.16"><defs><style>.cls-1{fill:#fff;}</style></defs><path class="cls-1" d="M51.94,30.82a37.7,37.7,0,0,1-2.27,13.35,30.7,30.7,0,0,1-6.26,10.32,27.89,27.89,0,0,1-9.51,6.67,30.13,30.13,0,0,1-12,2.36H2.14l7-57.36H29A24.2,24.2,0,0,1,38.53,8,20.43,20.43,0,0,1,45.75,13a22.26,22.26,0,0,1,4.58,7.8A29.82,29.82,0,0,1,51.94,30.82ZM44.21,31a26.33,26.33,0,0,0-1.08-7.81A16.56,16.56,0,0,0,40,17.27a13.66,13.66,0,0,0-5-3.72,16.38,16.38,0,0,0-6.68-1.3H16l-5.6,45.23H22.68a20.69,20.69,0,0,0,8.72-1.82,19.33,19.33,0,0,0,6.81-5.25,25,25,0,0,0,4.42-8.32A36.31,36.31,0,0,0,44.21,31Z"/><path class="cls-1" d="M86.92,56a36.76,36.76,0,0,1-4,3.62,24.61,24.61,0,0,1-4,2.5,17.44,17.44,0,0,1-4.24,1.46,23.36,23.36,0,0,1-4.78.46,16.08,16.08,0,0,1-6.25-1.16A12.84,12.84,0,0,1,59,59.62a14.83,14.83,0,0,1-3-5.19,20.7,20.7,0,0,1-1-6.8,29.74,29.74,0,0,1,.66-6.22,29.19,29.19,0,0,1,1.92-5.91,26.79,26.79,0,0,1,3.08-5.2,21.24,21.24,0,0,1,4.16-4.15A19.69,19.69,0,0,1,70,23.41a18.17,18.17,0,0,1,6.06-1,14.73,14.73,0,0,1,5.33.88A11.52,11.52,0,0,1,85,25.53a9,9,0,0,1,2.14,3,7.87,7.87,0,0,1,.7,3.12,11,11,0,0,1-1.08,4.86,10.06,10.06,0,0,1-4,4,29.65,29.65,0,0,1-7.93,3.11,88.13,88.13,0,0,1-13,2.12c0,.29,0,.58,0,.86s0,.57,0,.86c0,3.58.78,6.3,2.34,8.19s3.92,2.82,7.07,2.82a13.61,13.61,0,0,0,3.42-.4,15.18,15.18,0,0,0,2.68-1,12.5,12.5,0,0,0,2.08-1.28l1.64-1.29c.5-.38,1-.71,1.39-1a2.43,2.43,0,0,1,1.28-.4,1.8,1.8,0,0,1,1.36.68ZM75.63,27.54a10.29,10.29,0,0,0-4.64,1,12.08,12.08,0,0,0-3.76,2.86,17.44,17.44,0,0,0-2.81,4.28,26,26,0,0,0-1.8,5.3,75.42,75.42,0,0,0,9.89-1.74,24.36,24.36,0,0,0,5.72-2.12,6.12,6.12,0,0,0,2.64-2.46,6.22,6.22,0,0,0,.65-2.76A4.07,4.07,0,0,0,80.17,29,5.4,5.4,0,0,0,78.35,28,7.74,7.74,0,0,0,75.63,27.54Z"/><path class="cls-1" d="M147.94,42.17c.38.92.76,1.84,1.14,2.78.37-1,.76-1.91,1.16-2.84s.82-1.83,1.28-2.69L168.65,7.36a4.22,4.22,0,0,1,.66-1,2.11,2.11,0,0,1,.76-.52,3.33,3.33,0,0,1,.94-.2c.35,0,.76,0,1.24,0h8.13V63.52h-9.49V26.13q0-1,.06-2.28t.18-2.52L153.64,54.15a4.67,4.67,0,0,1-1.56,1.75,4.07,4.07,0,0,1-2.24.62h-1.48a4.08,4.08,0,0,1-2.25-.62,4.67,4.67,0,0,1-1.56-1.75L126.82,21.21c.11.88.18,1.74.22,2.58s.06,1.62.06,2.34V63.52h-9.49V5.64h8.13c.48,0,.89,0,1.24,0a3.33,3.33,0,0,1,.94.2,2.27,2.27,0,0,1,.78.52,4,4,0,0,1,.68,1L146.67,39.5C147.13,40.36,147.55,41.25,147.94,42.17Z"/><path class="cls-1" d="M201.26,63.52h-10.8V5.64h10.8Z"/><path class="cls-1" d="M242.4,16.17a3.12,3.12,0,0,1-1,1.24,2.59,2.59,0,0,1-1.39.36,3.56,3.56,0,0,1-1.8-.62c-.66-.42-1.45-.88-2.36-1.38a19,19,0,0,0-3.18-1.38,13.23,13.23,0,0,0-4.3-.62,12.69,12.69,0,0,0-3.91.54,8.32,8.32,0,0,0-2.8,1.5,6,6,0,0,0-1.7,2.3,7.59,7.59,0,0,0-.56,2.94,5.1,5.1,0,0,0,1.14,3.4,9.68,9.68,0,0,0,3,2.33,28.37,28.37,0,0,0,4.29,1.72q2.4.75,4.9,1.62a46.18,46.18,0,0,1,4.9,2A17.16,17.16,0,0,1,241.92,35a13.1,13.1,0,0,1,3,4.26,14.84,14.84,0,0,1,1.14,6.13,20,20,0,0,1-1.34,7.34,17,17,0,0,1-3.93,6,18.46,18.46,0,0,1-6.3,4A23.28,23.28,0,0,1,226,64.16a27.5,27.5,0,0,1-5.44-.54,28.29,28.29,0,0,1-5.14-1.54,27.54,27.54,0,0,1-4.61-2.4A23.59,23.59,0,0,1,207,56.56l3.12-5.17a4.34,4.34,0,0,1,1.06-.94,2.66,2.66,0,0,1,1.39-.38,3.9,3.9,0,0,1,2.16.82c.77.55,1.68,1.16,2.74,1.82a20.15,20.15,0,0,0,3.72,1.82,14.32,14.32,0,0,0,5.14.82c3.07,0,5.45-.72,7.13-2.18A7.82,7.82,0,0,0,236,46.91a5.81,5.81,0,0,0-1.14-3.72,9.35,9.35,0,0,0-3-2.43,23.43,23.43,0,0,0-4.28-1.66c-1.61-.45-3.23-.94-4.89-1.48a41.14,41.14,0,0,1-4.88-1.92,15.83,15.83,0,0,1-4.28-2.92,13.21,13.21,0,0,1-3-4.5,17.2,17.2,0,0,1-1.14-6.67,15.92,15.92,0,0,1,5-11.49,18.32,18.32,0,0,1,5.94-3.72,21.73,21.73,0,0,1,8-1.4,26.92,26.92,0,0,1,9.44,1.6A21.44,21.44,0,0,1,245,11.08Z"/><path class="cls-1" d="M263.79,63.52H253V5.64h10.8Z"/><path class="cls-1" d="M329.51,34.58a32.21,32.21,0,0,1-2.12,11.79,28,28,0,0,1-6,9.39,27.13,27.13,0,0,1-9.25,6.18,33.43,33.43,0,0,1-24,0,27.16,27.16,0,0,1-9.28-6.18,28,28,0,0,1-6-9.39,32.21,32.21,0,0,1-2.12-11.79A32.21,32.21,0,0,1,273,22.79a27.81,27.81,0,0,1,6-9.38,27,27,0,0,1,9.28-6.19,31.41,31.41,0,0,1,12-2.22,31,31,0,0,1,12,2.24,27,27,0,0,1,15.21,15.55A32.21,32.21,0,0,1,329.51,34.58Zm-11.05,0A27.06,27.06,0,0,0,317.2,26a18.11,18.11,0,0,0-3.62-6.42,15.55,15.55,0,0,0-5.74-4,21.52,21.52,0,0,0-15.27,0,15.73,15.73,0,0,0-5.79,4A18,18,0,0,0,283.12,26a26.76,26.76,0,0,0-1.28,8.55,26.72,26.72,0,0,0,1.28,8.55,17.86,17.86,0,0,0,3.66,6.4,15.8,15.8,0,0,0,5.79,4,21.52,21.52,0,0,0,15.27,0,15.62,15.62,0,0,0,5.74-4,17.94,17.94,0,0,0,3.62-6.4A27,27,0,0,0,318.46,34.58Z"/><path class="cls-1" d="M342.63,5.7a3,3,0,0,1,.86.24,2.86,2.86,0,0,1,.74.52,10,10,0,0,1,.8.9l30.38,38.71c-.11-.94-.18-1.85-.22-2.74s-.06-1.73-.06-2.51V5.64h9.48V63.52h-5.56a4.89,4.89,0,0,1-2.12-.4,4.76,4.76,0,0,1-1.64-1.44L345,23.13c.08.86.14,1.7.18,2.54s.06,1.61.06,2.31V63.52h-9.49V5.64h5.64A10.25,10.25,0,0,1,342.63,5.7Z"/><path class="cls-1" d="M430.57,5.64v8.57H404.91V30.26h20.21v8.28H404.91V54.91h25.66v8.61H394.06V5.64Z"/><path class="cls-1" d="M469,16.17a3,3,0,0,1-1,1.24,2.56,2.56,0,0,1-1.38.36,3.56,3.56,0,0,1-1.8-.62c-.67-.42-1.45-.88-2.36-1.38a19,19,0,0,0-3.18-1.38,13.25,13.25,0,0,0-4.31-.62,12.67,12.67,0,0,0-3.9.54,8.23,8.23,0,0,0-2.8,1.5,6,6,0,0,0-1.7,2.3,7.41,7.41,0,0,0-.56,2.94,5.1,5.1,0,0,0,1.14,3.4,9.68,9.68,0,0,0,3,2.33,28.23,28.23,0,0,0,4.28,1.72q2.4.75,4.91,1.62a47.05,47.05,0,0,1,4.9,2A16.92,16.92,0,0,1,468.5,35a13.13,13.13,0,0,1,3,4.26,14.84,14.84,0,0,1,1.14,6.13,19.82,19.82,0,0,1-1.35,7.34,17,17,0,0,1-3.92,6,18.46,18.46,0,0,1-6.3,4,23.32,23.32,0,0,1-8.53,1.46,27.5,27.5,0,0,1-5.44-.54A28.63,28.63,0,0,1,442,62.08a27.45,27.45,0,0,1-4.6-2.4,23.16,23.16,0,0,1-3.82-3.12l3.12-5.17a4.16,4.16,0,0,1,1.06-.94,2.63,2.63,0,0,1,1.38-.38,3.85,3.85,0,0,1,2.16.82c.78.55,1.69,1.16,2.75,1.82a20.15,20.15,0,0,0,3.72,1.82,14.32,14.32,0,0,0,5.14.82c3.07,0,5.45-.72,7.13-2.18a7.82,7.82,0,0,0,2.52-6.26,5.81,5.81,0,0,0-1.14-3.72,9.35,9.35,0,0,0-3-2.43,23.54,23.54,0,0,0-4.29-1.66q-2.4-.68-4.88-1.48a40.48,40.48,0,0,1-4.88-1.92A16,16,0,0,1,440,32.78a13.33,13.33,0,0,1-3-4.5,17.2,17.2,0,0,1-1.14-6.67,16,16,0,0,1,4.94-11.49,18.47,18.47,0,0,1,5.95-3.72,21.72,21.72,0,0,1,8-1.4,26.93,26.93,0,0,1,9.45,1.6,21.44,21.44,0,0,1,7.37,4.48Z"/><path class="cls-1" d="M25.64,121.83a35.44,35.44,0,0,1-3.1,4.65A22.3,22.3,0,0,1,19,130a15.38,15.38,0,0,1-3.92,2.26,11.71,11.71,0,0,1-4.26.8,10,10,0,0,1-4.37-.94,9.21,9.21,0,0,1-3.34-2.76A13.62,13.62,0,0,1,1,124.9a22.2,22.2,0,0,1-.76-6.11,27.47,27.47,0,0,1,.9-7,28.39,28.39,0,0,1,6.55-12,26.59,26.59,0,0,1,5.18-4.41A24.61,24.61,0,0,1,19,92.43a23.12,23.12,0,0,1,6.89-1,30,30,0,0,1,5.06.42,21.31,21.31,0,0,1,4.86,1.46L31,132.52H27.28a2.15,2.15,0,0,1-1.9-.72,3,3,0,0,1-.5-1.76Zm2.72-24.89a10.77,10.77,0,0,0-1.74-.26c-.58,0-1.14-.06-1.7-.06a14.1,14.1,0,0,0-4.65.78,16.46,16.46,0,0,0-4.2,2.18,18.69,18.69,0,0,0-3.56,3.34,21.67,21.67,0,0,0-2.74,4.26A23.87,23.87,0,0,0,8,112.13a22.38,22.38,0,0,0-.64,5.38q0,9.64,6.16,9.65a7,7,0,0,0,3.84-1.22,14.8,14.8,0,0,0,3.58-3.41,28,28,0,0,0,3.15-5.16,49.24,49.24,0,0,0,2.56-6.54Z"/><path class="cls-1" d="M39.37,132.52l7.17-59h7l-7.16,59Z"/><path class="cls-1" d="M112,111.17c.39.92.77,1.84,1.14,2.78.37-1,.76-1.91,1.16-2.84s.83-1.83,1.28-2.69l17.13-32.06a5,5,0,0,1,.66-1,2.11,2.11,0,0,1,.76-.52,3.41,3.41,0,0,1,.94-.2c.35,0,.77,0,1.25,0h8.12v57.88H135V95.13q0-1,.06-2.28t.18-2.52L117.7,123.15a4.67,4.67,0,0,1-1.56,1.75,4.07,4.07,0,0,1-2.24.62h-1.48a4.07,4.07,0,0,1-2.24-.62,4.67,4.67,0,0,1-1.56-1.75L90.88,90.21c.11.88.18,1.74.22,2.58s.06,1.62.06,2.34v37.39H81.68V74.64H89.8c.48,0,.9,0,1.24,0a3.4,3.4,0,0,1,.95.2,2.27,2.27,0,0,1,.78.52,4.24,4.24,0,0,1,.68,1l17.29,32.14C111.19,109.36,111.61,110.24,112,111.17Z"/><path class="cls-1" d="M177.41,123.83a14.09,14.09,0,0,0,5.58-1,11.48,11.48,0,0,0,4.16-2.92,12.62,12.62,0,0,0,2.61-4.56,18.83,18.83,0,0,0,.9-6V74.64h10.76V109.3a26.65,26.65,0,0,1-1.66,9.55,21.22,21.22,0,0,1-12.35,12.53,29,29,0,0,1-20,0,21.58,21.58,0,0,1-7.54-5,21.86,21.86,0,0,1-4.77-7.57,26.65,26.65,0,0,1-1.66-9.55V74.64H164.2v34.62a18.83,18.83,0,0,0,.9,6,13.13,13.13,0,0,0,2.58,4.58,11.25,11.25,0,0,0,4.14,2.94A14.14,14.14,0,0,0,177.41,123.83Z"/><path class="cls-1" d="M217.22,74.7a2.79,2.79,0,0,1,.86.24,2.86,2.86,0,0,1,.74.52,8.63,8.63,0,0,1,.8.9L250,115.07c-.11-.94-.18-1.85-.22-2.74s-.06-1.73-.06-2.51V74.64h9.49v57.88h-5.57a4.11,4.11,0,0,1-3.76-1.84L219.62,92.13c.08.86.14,1.7.18,2.54s.06,1.61.06,2.31v35.54h-9.49V74.64H216A10,10,0,0,1,217.22,74.7Z"/><path class="cls-1" d="M320.05,103.58a31.41,31.41,0,0,1-2.12,11.69,26.26,26.26,0,0,1-15.21,15.13,32.57,32.57,0,0,1-12,2.12h-22.1V74.64h22.1a32.16,32.16,0,0,1,12,2.14,27.08,27.08,0,0,1,9.24,6,26.5,26.5,0,0,1,6,9.14A31.41,31.41,0,0,1,320.05,103.58Zm-11,0A26.72,26.72,0,0,0,307.76,95a18.12,18.12,0,0,0-3.64-6.4,15.65,15.65,0,0,0-5.75-4,19.6,19.6,0,0,0-7.62-1.4H279.5V124h11.25a19.6,19.6,0,0,0,7.62-1.4,15.65,15.65,0,0,0,5.75-4,18.12,18.12,0,0,0,3.64-6.4A26.72,26.72,0,0,0,309,103.58Z"/><path class="cls-1" d="M381.91,103.58a32.21,32.21,0,0,1-2.12,11.79,28.21,28.21,0,0,1-6,9.39,27,27,0,0,1-9.24,6.18,33.43,33.43,0,0,1-24,0,27.2,27.2,0,0,1-9.29-6.18,27.92,27.92,0,0,1-6-9.39,33.84,33.84,0,0,1,0-23.58,27.78,27.78,0,0,1,6-9.38,27.08,27.08,0,0,1,9.29-6.19,33.29,33.29,0,0,1,24,0,27.45,27.45,0,0,1,9.24,6.19,27.78,27.78,0,0,1,6,9.36A32.21,32.21,0,0,1,381.91,103.58Zm-11.05,0A27,27,0,0,0,369.6,95,18.11,18.11,0,0,0,366,88.61a15.58,15.58,0,0,0-5.75-4,19.6,19.6,0,0,0-7.62-1.4,19.83,19.83,0,0,0-7.65,1.4,15.69,15.69,0,0,0-5.78,4A18,18,0,0,0,335.52,95a29.2,29.2,0,0,0,0,17.1,17.86,17.86,0,0,0,3.66,6.4,15.76,15.76,0,0,0,5.78,4,19.83,19.83,0,0,0,7.65,1.4,19.6,19.6,0,0,0,7.62-1.4,15.65,15.65,0,0,0,5.75-4,17.94,17.94,0,0,0,3.62-6.4A27,27,0,0,0,370.86,103.58Z"/></svg>